HIERARCHY
ROOT Hips
{
     OFFSET 1.88212 96.90440 -13.34250
     CHANNELS 6 Xposition Yposition Zposition Zrotation Xrotation Yrotation
     JOINT Spine
     {
          OFFSET 0.00000 11.89050 0.00000
          CHANNELS 3 Zrotation Xrotation Yrotation
          JOINT Spine1
          {
               OFFSET -0.00000 25.65740 0.12766
               CHANNELS 3 Zrotation Xrotation Yrotation
               JOINT HEad
               {
                    OFFSET 0.00000 8.73416 0.01134
                    CHANNELS 3 Zrotation Xrotation Yrotation
                    End Site
                    {
                         OFFSET -0.29000 12.77420 2.51395
                    }
               }
               JOINT LeftShoulder1
               {
                    OFFSET 8.99000 -0.36225 -0.22000
                    CHANNELS 3 Zrotation Xrotation Yrotation
                    JOINT LeftArm
                    {
                         OFFSET 10.28270 -0.00338 0.32212
                         CHANNELS 3 Zrotation Xrotation Yrotation
                         JOINT LeftForeArm
                         {
                              OFFSET 32.76690 0.09914 -1.42434
                              CHANNELS 3 Zrotation Xrotation Yrotation
                              JOINT LeftHand
                              {
                                   OFFSET 27.56430 0.08536 1.02216
                                   CHANNELS 3 Zrotation Xrotation Yrotation
                                   End Site
                                   {
                                        OFFSET 16.74430 -0.60000 1.50291
                                   }
                              }
                         }
                    }
               }
               JOINT RightShoulder
               {
                    OFFSET -8.99000 -0.36225 -0.22000
                    CHANNELS 3 Zrotation Xrotation Yrotation
                    JOINT RightArm
                    {
                         OFFSET -10.28270 -0.00338 0.32212
                         CHANNELS 3 Zrotation Xrotation Yrotation
                         JOINT RightForeArm
                         {
                              OFFSET -32.89710 0.09914 -1.42434
                              CHANNELS 3 Zrotation Xrotation Yrotation
                              JOINT RightHand
                              {
                                   OFFSET -27.49210 0.08536 1.02216
                                   CHANNELS 3 Zrotation Xrotation Yrotation
                                   End Site
                                   {
                                        OFFSET -16.63120 -0.60000 1.50291
                                   }
                              }
                         }
                    }
               }
          }
     }
     JOINT LeftUpLeg
     {
          OFFSET 8.94580 -8.66707 0.10165
          CHANNELS 3 Zrotation Xrotation Yrotation
          JOINT LeftLeg
          {
               OFFSET 0.00000 -44.42270 1.37270
               CHANNELS 3 Zrotation Xrotation Yrotation
               JOINT LeftFoot
               {
                    OFFSET -0.25355 -42.09240 -1.46059
                    CHANNELS 3 Zrotation Xrotation Yrotation
                    JOINT LeftToes
                    {
                         OFFSET -0.04000 -4.41509 8.49910
                         CHANNELS 3 Zrotation Xrotation Yrotation
                         End Site
                         {
                              OFFSET 0.08000 -0.04745 9.77979
                         }
                    }
               }
          }
     }
     JOINT RightUpLeg
     {
          OFFSET -8.94580 -8.66707 0.10165
          CHANNELS 3 Zrotation Xrotation Yrotation
          JOINT RightLeg
          {
               OFFSET 0.00000 -44.42270 1.37270
               CHANNELS 3 Zrotation Xrotation Yrotation
               JOINT RightFoot
               {
                    OFFSET 0.25355 -42.09240 -1.46059
                    CHANNELS 3 Zrotation Xrotation Yrotation
                    JOINT RightToes
                    {
                         OFFSET 0.04000 -4.41509 8.49910
                         CHANNELS 3 Zrotation Xrotation Yrotation
                         End Site
                         {
                              OFFSET -0.08000 -0.13745 9.77979
                         }
                    }
               }
          }
     }
}
MOTION
Frames: 8
Frame Time: 0.01667
31.21114 91.09520 -14.06211 1.12914 14.78828 -176.67920 -3.44368 4.72520 5.71680 -0.01059 -0.00624 -0.01404 6.58610 -3.23731 -24.64990 1.79106 8.95378 3.36202 -88.97916 -33.39266 -76.50958 -57.48384 52.41346 -72.09937 24.04286 4.45535 -17.42520 12.72478 9.96049 1.06255 79.05811 -28.72700 76.09128 10.14838 20.12693 74.54546 14.29749 10.00962 10.74397 8.55371 -5.32780 -11.50004 -30.68803 5.88404 72.70358 7.99538 0.00159 -0.00269 -1.44035 -23.30092 -71.81794 -12.99341 37.47468 14.78417 30.83695 15.37563 -35.99024 -32.12982 0.31008 0.19551 -0.67363 21.78249 47.39442 
31.44304 92.18470 -14.46607 3.19983 18.71002 -171.01332 -1.06460 8.87709 1.61692 -0.00707 -0.00519 -0.01536 8.52600 0.85907 -24.77325 2.09285 8.30053 2.55715 -88.55305 -31.39245 -73.86529 -55.16258 53.21150 -75.01144 24.09613 4.51875 -17.13660 15.29665 9.20956 -1.10460 75.44109 -30.08745 72.84040 9.65897 19.31124 74.99554 14.98119 10.88766 -6.25294 10.88542 -2.20648 -18.18570 -30.38160 5.16072 72.34322 8.55129 0.00226 -0.00415 -2.01168 -22.35285 -71.42907 -6.16778 37.03251 7.23198 33.91018 19.62980 -29.99489 -30.14686 -0.03993 -0.01881 0.41889 26.67099 32.89881 
31.71084 93.49255 -14.78412 5.42360 23.72151 -164.76096 2.50242 13.11566 -3.30421 -0.00176 -0.00034 -0.01929 10.92575 6.35135 -24.78918 2.30064 8.21716 1.42125 -87.94908 -29.87564 -71.85460 -53.77195 53.64736 -76.90219 24.02378 4.75974 -16.70426 18.38364 8.78182 -3.61665 71.83288 -31.20344 69.86279 9.46760 18.60776 75.98302 14.01169 9.31260 9.03228 14.38596 1.16957 -25.82388 -29.82445 4.34786 71.97479 9.09110 0.00248 -0.00534 -2.60629 -21.08318 -70.96188 0.81398 35.44737 -1.40759 37.07029 24.78509 -23.62870 -30.00298 0.03289 0.03425 0.36088 10.89253 26.62276 
32.02106 94.88786 -15.02891 7.52554 29.88168 -158.18393 7.29791 17.32897 -8.99982 0.00162 0.00479 -0.02313 13.75061 12.99084 -24.67532 2.56602 8.65394 0.03414 -87.36222 -28.67467 -70.17448 -52.95023 54.04074 -77.94267 24.22837 4.78967 -16.52827 21.78854 8.57345 -6.43378 68.35706 -32.09348 67.06087 8.65310 17.43847 72.79073 15.15642 9.82738 -14.01762 19.19293 4.59672 -34.25221 -29.04594 3.48238 71.62224 9.55729 0.00240 -0.00571 -3.22412 -19.54347 -70.30658 7.15141 32.91725 -10.52769 39.53885 29.26497 -19.11445 -30.00599 0.03912 -0.05405 5.52679 19.79896 16.52410 
32.37399 96.26253 -15.21370 8.84167 35.46066 -152.44389 11.70651 20.30478 -13.82362 0.00419 0.00916 -0.02642 16.87737 19.10913 -25.06821 2.95895 9.54369 -1.35972 -86.83862 -27.55890 -68.51443 -56.71577 50.56320 -73.10965 21.28950 7.45885 -19.55877 25.39942 8.50608 -9.50440 65.05855 -32.79754 64.39758 8.31334 16.58887 72.15426 16.31748 6.39663 1.65401 24.06431 7.09362 -41.62831 -28.07528 2.60553 71.33019 9.91889 0.00237 -0.00524 -3.87581 -17.82274 -69.44277 10.28515 28.68643 -17.93138 41.60793 33.40964 -16.54000 -28.96849 0.00722 -0.10222 -2.25960 7.98567 6.13463 
32.75876 97.53588 -15.34318 9.56322 40.47479 -147.40923 15.59015 22.38848 -17.75616 0.00943 0.01535 -0.02668 20.30890 24.64632 -25.90932 3.64399 10.78994 -2.75765 -86.38145 -26.42576 -66.87210 -58.21977 49.12307 -70.90041 20.07199 8.89905 -21.05054 29.23415 8.50536 -12.42709 61.79487 -33.60804 61.76632 8.16124 15.87974 72.22635 15.13428 9.54577 -5.52143 28.81993 8.89360 -47.98299 -26.95009 1.76517 71.15591 10.17455 0.00260 -0.00441 -4.56681 -16.04324 -68.38982 10.40754 23.44981 -23.81496 43.42610 37.50225 -15.75306 -27.41460 0.01076 -0.12164 2.22188 16.79458 5.60551 
33.16168 98.62904 -15.40335 9.83323 44.97404 -142.98917 18.90955 23.85632 -20.82323 0.01346 0.02081 -0.02731 24.02409 29.57606 -27.14964 4.65900 12.31123 -4.13582 -85.90411 -25.19568 -65.26527 -58.52522 48.82009 -70.12877 30.89758 1.18021 -8.13328 33.21317 8.55184 -15.32652 58.64357 -34.38185 59.21956 8.01041 15.27880 72.85411 15.91728 7.85028 3.09758 33.38040 10.24503 -53.36359 -25.81869 0.28250 73.16959 11.06566 -0.02174 -0.02154 -5.74391 -10.05311 -54.34564 7.94988 17.68081 -28.60569 45.19580 41.93056 -16.46520 -25.12527 0.02270 -0.15251 0.23542 21.03320 3.77488 
33.57854 99.45759 -15.34941 9.74540 49.01990 -139.11308 22.29157 25.95372 -23.27216 0.02372 0.11890 -0.02299 27.53517 32.72591 -28.13281 5.82556 12.77269 -5.37130 -85.26544 -23.78178 -63.69815 -58.00371 48.92221 -70.26363 21.11830 8.17801 -18.35498 36.98373 7.58243 -17.59542 55.72634 -35.02029 56.88047 6.83891 14.66295 69.21615 14.63793 10.19982 3.22687 37.67792 11.30962 -57.83111 -24.77571 -1.40283 76.96765 12.28691 -0.05329 -0.01510 -7.07297 -11.57730 -66.20388 3.36037 11.69130 -32.72504 47.14920 46.78936 -18.39031 -22.36977 0.03897 -0.17356 0.99078 27.48086 3.98873 
